<?xml version="1.0" encoding="utf-8"?>
<!-- Generator: Adobe Illustrator 27.0.0, SVG Export Plug-In . SVG Version: 6.00 Build 0)  -->
<svg width="100" height="100"  version="1.1" id="レイヤー_1" xmlns="http://www.w3.org/2000/svg" xmlns:xlink="http://www.w3.org/1999/xlink" x="0px"
	 y="0px" viewBox="0 0 100 100" style="enable-background:new 0 0 100 100;" xml:space="preserve">
<style type="text/css">
	.st0{fill:#079DB2;}
	.st1{fill:#F5DF4D;}
</style>
<symbol  id="アイコン" viewBox="-512 -512 1024 1024">
	<path id="App_Icon_Placeholder_00000165203807997854282290000015091521157694716329_" class="st0" d="M-155,512h310
		c102.8,0,154.2,0,209.5-17.5c60.4-22,108-69.6,130-130C512,309.2,512,257.8,512,155v-310c0-102.8,0-154.2-17.5-209.5
		c-22-60.4-69.6-108-130-130C309.2-512,257.8-512,155-512h-310c-102.8,0-154.2,0-209.5,17.5c-60.4,22-108,69.6-130,130
		C-512-309.2-512-257.8-512-155v310c0,102.8,0,154.2,17.5,209.5c22,60.4,69.6,108,130,130C-309.2,512-257.8,512-155,512L-155,512"/>
	<path class="st1" d="M12.8-374.4c-17.6,0-33.4,11.3-38.9,28.2l-122.1,372l-34.6-190.1c-3.5-19.5-20.5-33.6-40.3-33.6h-288.8v81.9
		h254.6l57.3,315.3c3.4,18.4,18.8,32.2,37.5,33.5c18.7,1.4,35.9-10.3,41.7-28.1L6.6-183l125,525.1c4.5,18.9,21.6,32.4,41.1,31.4
		c19.4-0.6,35.8-14.8,39.1-33.9l79.3-455.7h220.8V-198H256.7c-19.9,0-36.9,14.3-40.4,33.9l-51.1,293.7L52.7-343
		c-4.2-17.8-19.8-30.7-38.1-31.4C14-374.4,13.4-374.4,12.8-374.4z"/>
</symbol>
<g id="_x31_024">
	
		<use xlink:href="#アイコン"  width="1024" height="1024" id="_x5B_アイコンをここに入力_x5D_" x="-512" y="-512" transform="matrix(9.765625e-02 0 0 -9.765625e-02 50 49.7901)" style="overflow:visible;"/>
</g>
</svg>
