<?xml version="1.0" encoding="UTF-8"?>
<svg id="_レイヤー_1" data-name="レイヤー_1" xmlns="http://www.w3.org/2000/svg" version="1.1" viewBox="0 0 1024 1024">
  <!-- Generator: Adobe Illustrator 30.2.1, SVG Export Plug-In . SVG Version: 2.1.1 Build 1)  -->
  <defs>
    <style>
      .st0 {
        fill: #96c864;
      }

      .st1 {
        fill: #fff;
      }

      .st2 {
        fill: #231916;
      }
    </style>
  </defs>
  <rect class="st1" x="0" width="1024" height="1024" rx="200" ry="200"/>
  <g>
    <path class="st2" d="M264.1,871.8l3.1-60.5,492.6,3.1-2.9,57.5h-492.8ZM352.7,757.4l3.1-60.5,124.3,3.1,3.1-246.1-104-105.3-133.6-.9,102.4,234.1c3.2,6.8,3.6,14.4,1.1,21.5-1.7,4.6-41.9,114.6-153.5,114.6-103.7-.2-147-77.6-155.5-118.5-1.4-6.1-.7-12.1,2.1-17.6l126.9-277.3c4.2-10,15.2-13,23.6-13.7l198-1.9,124.9-136.9,118,135.9,198.1,1c8.1,2.6,19.1,5.6,23.3,15.5l127,277.3c3.2,6.8,3.6,14.4,1.1,21.5-1.7,4.6-41.9,114.6-153.5,114.6-103.7-.2-147-77.6-155.5-118.5-1.4-6.1-.7-12.1,2.1-17.6l105.2-229.9-137.2-4.3-102.3,101-.9,248.1,130.5,3.1-2.9,57.5h-315.6Z"/>
    <path class="st0" d="M732.9,594.8c7,21.3,30.5,65.5,96,65.8,53,0,82.2-40.9,94.8-65.3l-94.8-209.9-96,209.4Z"/>
    <path class="st0" d="M99.1,594.8c7,21.3,30.5,65.5,96,65.8,53,0,82.2-40.9,94.8-65.3l-94.8-209.9-96,209.4Z"/>
    <polygon class="st1" points="438.8 322.8 508.2 396.4 584.8 324.2 513.2 240.5 438.8 322.8"/>
  </g>
</svg>